PathFileType	4	(X/Y/Z)	C:/Users/opensim2020/Desktop/walking_exp_matlab/subject01_walking15_straight_01.trc	
DataRate	CameraRate	NumFrames	NumMarkers	Units	OrigDataRate	OrigDataStartFrame	OrigNumFrames	
100.00	100.00	4	43	mm	100.00	761	125	
Frame#	Time	LFHD			RFHD			LBHD			RBHD			C7			T10			CLAV			STRN			RBAK			LSHO			LUPA			LELB			LFRM			LWRA			LWRB			LFIN			RSHO			RUPA			RELB			RFRM			RWRA			RWRB			RFIN			LASI			RASI			LPSI			RPSI			LTHI			LKNE			LTIB			LANK			LHEE			LTOE			RTHI			RKNE			RTIB			RANK			RHEE			RTOE			*39			*40			*41			*42			
		X1	Y1	Z1	X2	Y2	Z2	X3	Y3	Z3	X4	Y4	Z4	X5	Y5	Z5	X6	Y6	Z6	X7	Y7	Z7	X8	Y8	Z8	X9	Y9	Z9	X10	Y10	Z10	X11	Y11	Z11	X12	Y12	Z12	X13	Y13	Z13	X14	Y14	Z14	X15	Y15	Z15	X16	Y16	Z16	X17	Y17	Z17	X18	Y18	Z18	X19	Y19	Z19	X20	Y20	Z20	X21	Y21	Z21	X22	Y22	Z22	X23	Y23	Z23	X24	Y24	Z24	X25	Y25	Z25	X26	Y26	Z26	X27	Y27	Z27	X28	Y28	Z28	X29	Y29	Z29	X30	Y30	Z30	X31	Y31	Z31	X32	Y32	Z32	X33	Y33	Z33	X34	Y34	Z34	X35	Y35	Z35	X36	Y36	Z36	X37	Y37	Z37	X38	Y38	Z38	X39	Y39	Z39	X40	Y40	Z40	X41	Y41	Z41	X42	Y42	Z42	X43	Y43	Z43	

94	0.930	1351.61951	307.70297	1662.10303	1456.73999	346.78058	1676.47168	1390.89722	196.47371	1622.31177	1503.08936	235.49503	1635.92175	1430.15051	167.26160	1429.98474	1451.83264	132.15021	1135.54749	1438.66553	315.64993	1366.30457	1446.56506	358.79510	1211.84265	1515.68372	110.92057	1241.18237	1276.68079	256.79956	1389.25903	1197.03381	239.18112	1204.40808	1197.81409	232.85115	1051.70435	1175.77441	282.96689	948.40399	1197.49304	375.59537	844.45624	1174.34851	321.71918	832.00671	1162.84509	378.65860	771.06818	1583.48132	241.81371	1408.64014	1695.48584	177.65269	1218.88477	1709.54932	186.41864	1092.11438	1742.44812	230.34380	978.36273	1718.36304	322.67581	871.56537	1762.51099	285.47308	869.05579	1760.60449	332.91284	796.10022	1360.62720	321.14359	935.11969	1576.13501	306.06555	934.12885	1400.79224	131.27538	943.68921	1546.28394	125.86700	942.81775	1318.98694	310.36230	598.64996	1343.99036	305.75980	463.52112	1341.92126	244.71338	282.48804	1405.59680	197.58589	73.29027	1457.94629	148.66606	48.13225	1402.38086	342.07721	34.24527	1648.67700	320.77475	604.74005	1639.20166	357.38699	452.54086	1637.45093	215.55496	350.69437	1589.96643	70.87724	204.65343	1533.75940	15.22405	208.27504	1598.13660	129.74686	73.12822	1434.12695	330.32141	1708.30908	-3101.91235	1973.12195	1023.41760	-3140.64063	2012.51392	1022.06445			 
95	0.940	1350.76611	321.60040	1662.72351	1455.80774	361.06232	1676.98218	1390.41479	210.24937	1623.43079	1502.50183	249.71638	1636.89099	1429.52539	180.48302	1430.93408	1451.38257	145.38979	1136.46912	1437.81604	328.81494	1367.16187	1445.67004	371.86563	1212.66174	1515.46985	124.13017	1242.26746	1276.00781	269.61569	1390.32190	1195.83728	253.23027	1205.64099	1196.16016	249.37422	1052.82861	1174.29382	303.46756	950.88770	1195.73755	400.72906	851.46515	1173.07227	347.38486	836.10474	1161.49756	406.68884	777.99939	1582.71521	255.22015	1409.31763	1694.56580	189.95445	1219.84827	1708.18848	197.38515	1093.31885	1742.10352	237.37488	978.73932	1719.26904	325.52762	868.06281	1763.24304	288.06934	867.42706	1761.95398	332.27478	792.29340	1359.25769	333.02344	935.94409	1574.57251	319.63333	935.37708	1401.33765	143.76012	944.95844	1546.80640	139.48470	944.23157	1318.75476	316.07187	598.70770	1342.88147	308.94669	463.52939	1341.52917	245.56960	283.17361	1405.59253	197.41039	73.86813	1457.96545	148.80374	49.33957	1401.99023	342.07385	34.17021	1647.95251	340.29840	607.81989	1637.86438	380.38766	456.27325	1636.46057	242.70044	348.55569	1589.55212	104.48209	195.84802	1534.36279	48.16613	195.86084	1597.60107	173.00444	69.64434	1433.22314	344.66748	1708.90796	-3101.91040	1973.07959	1023.50146	-3140.69336	2012.45764	1022.11267			 
96	0.950	1350.01746	335.46927	1663.24670	1454.93616	375.22476	1677.36670	1389.94019	224.09644	1624.33606	1501.95203	263.87857	1637.66956	1429.04504	193.95255	1431.62231	1450.89905	158.94234	1137.16907	1436.94275	341.99515	1367.78845	1444.70337	384.90707	1213.27893	1515.29016	137.35030	1243.24377	1275.32764	282.56281	1391.31567	1194.76416	266.99487	1206.76917	1194.55701	265.71423	1053.43164	1173.11511	324.07776	953.65002	1194.16418	425.26865	858.48950	1171.85156	372.46967	840.86774	1160.10693	434.32678	785.31396	1582.18127	268.79941	1410.09888	1693.65918	202.20760	1220.67371	1706.78186	208.23662	1094.37329	1741.67871	244.31084	979.12384	1720.15710	328.15918	864.77289	1764.19519	290.55466	866.23993	1763.39172	331.49286	788.97815	1358.07397	345.10089	936.65216	1573.06384	332.82806	936.28741	1401.86670	156.20494	946.06439	1547.57544	153.06110	945.73859	1317.82092	321.99438	598.72089	1341.89709	312.50079	463.55560	1341.09082	246.37048	283.78503	1405.44946	198.15575	74.69268	1458.52405	149.58954	50.13899	1401.71265	342.17969	34.11159	1647.12830	359.16354	610.72528	1636.17163	402.61938	459.66989	1635.59631	269.99316	345.47958	1589.24634	139.09793	186.16899	1534.55103	81.78781	182.00505	1597.69299	216.61270	66.14389	1432.39551	358.89337	1709.32446	-3101.92627	1973.14526	1023.58691	-3140.74146	2012.47290	1022.11102			 
97	0.960	1349.32495	349.30002	1663.60596	1454.26465	389.45663	1677.67346	1389.57043	237.87410	1625.00037	1501.40845	278.01749	1638.17456	1428.53357	207.22253	1432.23218	1450.39844	171.57216	1137.93713	1436.20068	355.28864	1368.33899	1443.88501	397.99631	1213.84644	1515.06763	150.66699	1243.99939	1274.69177	295.59866	1392.11707	1193.62158	280.76212	1207.70105	1193.13440	281.84753	1054.00171	1172.09717	344.87546	956.48468	1192.67444	449.41156	865.87445	1171.24341	397.51279	845.79974	1158.78992	461.52032	792.99469	1581.34302	282.28635	1410.38831	1692.67981	214.46150	1221.28735	1705.40393	219.15868	1095.32056	1741.18848	251.16832	979.46570	1721.08093	330.65518	861.68127	1764.67786	292.89139	864.92096	1764.82898	330.50992	785.94696	1356.99463	357.01328	937.02130	1571.56030	346.20987	937.48596	1402.46643	168.60197	947.02838	1548.18372	166.34067	946.64832	1317.34155	328.56247	598.62061	1341.06799	316.25464	463.53796	1340.66797	247.66333	284.67847	1405.21448	198.21129	75.60335	1458.66492	149.83365	51.58555	1401.50378	342.24078	34.08891	1646.13757	377.73495	613.44965	1634.37988	424.34055	463.07620	1634.88074	298.72507	340.95007	1589.12537	174.68570	175.94643	1534.15552	117.15684	167.50839	1598.20386	260.31061	62.36265	1431.68433	373.05527	1709.56897	-3101.90527	1973.11511	1023.51819	-3140.74512	2012.53149	1022.18982			 
